* 显示全部视频信息

使用如下命令显示视频信息：

```
ffmpeg -i HelloWorld.mp4 

```

命令行输出：

```
ffmpeg version 4.0.2 Copyright (c) 2000-2018 the FFmpeg developers
  built with Apple LLVM version 9.1.0 (clang-902.0.39.2)
  configuration: --prefix=/usr/local/Cellar/ffmpeg/4.0.2 --enable-shared --enable-pthreads --enable-version3 --enable-hardcoded-tables --enable-avresample --cc=clang --host-cflags='-I/Library/Java/JavaVirtualMachines/jdk1.8.0_131.jdk/Contents/Home/include -I/Library/Java/JavaVirtualMachines/jdk1.8.0_131.jdk/Contents/Home/include/darwin' --host-ldflags= --enable-gpl --enable-chromaprint --enable-ffplay --enable-frei0r --enable-libass --enable-libbluray --enable-libbs2b --enable-libcaca --enable-libfdk-aac --enable-libfontconfig --enable-libfreetype --enable-libgme --enable-libgsm --enable-libmodplug --enable-libmp3lame --enable-libopencore-amrnb --enable-libopencore-amrwb --enable-libopenh264 --enable-libopus --enable-librsvg --enable-librtmp --enable-librubberband --enable-libsnappy --enable-libsoxr --enable-libspeex --enable-libssh --enable-libtesseract --enable-libtheora --enable-libtwolame --enable-libvidstab --enable-libvorbis --enable-libvpx --enable-libwavpack --enable-libwebp --enable-libx264 --enable-libx265 --enable-libxvid --enable-libzimg --enable-libzmq --enable-opencl --enable-videotoolbox --enable-openssl --enable-libsrt --enable-lzma --enable-libopenjpeg --disable-decoder=jpeg2000 --extra-cflags=-I/usr/local/Cellar/openjpeg/2.3.0/include/openjpeg-2.3 --enable-nonfree
  libavutil      56. 14.100 / 56. 14.100
  libavcodec     58. 18.100 / 58. 18.100
  libavformat    58. 12.100 / 58. 12.100
  libavdevice    58.  3.100 / 58.  3.100
  libavfilter     7. 16.100 /  7. 16.100
  libavresample   4.  0.  0 /  4.  0.  0
  libswscale      5.  1.100 /  5.  1.100
  libswresample   3.  1.100 /  3.  1.100
  libpostproc    55.  1.100 / 55.  1.100
Input #0, mov,mp4,m4a,3gp,3g2,mj2, from 'HelloWorld.mp4':
  Metadata:
    major_brand     : isom
    minor_version   : 512
    compatible_brands: isomiso2avc1mp41
    encoder         : Lavf58.12.100
    comment         : vid:Hello world, 2018!
    genre           : 1234567890
  Duration: 00:00:14.56, start: 0.000000, bitrate: 3192 kb/s
    Stream #0:0(und): Video: h264 (High) (avc1 / 0x31637661), yuv420p, 1280x720, 3063 kb/s, 29.97 fps, 29.97 tbr, 30k tbn, 59.94 tbc (default)
    Metadata:
      handler_name    : VideoHandler
    Stream #0:1(und): Audio: aac (LC) (mp4a / 0x6134706D), 44100 Hz, stereo, fltp, 129 kb/s (default)
    Metadata:
      handler_name    : SoundHandler
At least one output file must be specified
```

* 显示主要视频信息

```
ffmpeg -i HelloWorld.mp4 -hide_banner

```

命令行输出：

```
Input #0, mov,mp4,m4a,3gp,3g2,mj2, from 'HelloWorld.mp4':
  Metadata:
    major_brand     : isom
    minor_version   : 512
    compatible_brands: isomiso2avc1mp41
    encoder         : Lavf58.12.100
    comment         : vid:Hello world, 2018!
    genre           : 1234567890
  Duration: 00:00:14.56, start: 0.000000, bitrate: 3192 kb/s
    Stream #0:0(und): Video: h264 (High) (avc1 / 0x31637661), yuv420p, 1280x720, 3063 kb/s, 29.97 fps, 29.97 tbr, 30k tbn, 59.94 tbc (default)
    Metadata:
      handler_name    : VideoHandler
    Stream #0:1(und): Audio: aac (LC) (mp4a / 0x6134706D), 44100 Hz, stereo, fltp, 129 kb/s (default)
    Metadata:
      handler_name    : SoundHandler
At least one output file must be specified
```